<svg viewBox="0 0 276.765 276.765" xmlns="http://www.w3.org/2000/svg" xmlns:xlink="http://www.w3.org/1999/xlink" id="Icon_Design" overflow="hidden"><path d="M240.912 176.464C231.715 176.461 223.343 180.206 217.321 186.235 212.405 191.145 209.009 197.618 207.924 204.827L184.145 204.827 184.145 162.628 231.5 162.628C243.296 162.63 254.021 157.832 261.747 150.099 269.48 142.374 274.278 131.649 274.275 119.852 274.278 108.056 269.48 97.3305 261.747 89.6054 254.951 82.8028 245.832 78.2751 235.707 77.2848 238.397 70.8611 239.913 63.8097 239.912 56.4053 239.914 41.384 233.809 27.7389 223.962 17.9005 214.124 8.05405 200.479 1.94882 185.458 1.95133 172.729 1.94864 160.988 6.3425 151.735 13.6807 144.466 19.4416 138.714 27.0287 135.136 35.7481 128.517 31.1092 120.448 28.3683 111.754 28.3703 100.491 28.3678 90.2475 32.9501 82.8715 40.3342 77.0925 46.107 73.0419 53.6404 71.55 62.0404 66.1489 60.1194 60.34 59.0417 54.2829 59.0427 39.9965 59.0402 27.0167 64.8476 17.6597 74.2124 8.29487 83.5692 2.48737 96.549 2.48993 110.835 2.48749 125.121 8.29487 138.101 17.6597 147.458 26.9811 156.787 39.8991 162.582 54.1214 162.624L54.1214 162.628 92.6206 162.628 92.6206 204.827 68.8415 204.827C67.7561 197.618 64.3605 191.145 59.4443 186.235 53.4226 180.206 45.0501 176.461 35.853 176.464 26.6558 176.461 18.2835 180.206 12.2618 186.235 6.232 192.257 2.48749 200.629 2.48993 209.827 2.48749 219.024 6.232 227.396 12.2618 233.418 18.2835 239.448 26.656 243.192 35.853 243.19 45.0501 243.192 53.4226 239.448 59.4443 233.418 64.3605 228.508 67.7561 222.035 68.8415 214.827L102.621 214.827 102.621 162.628 133.003 162.628 133.003 208.462C125.795 209.548 119.321 212.943 114.412 217.86 108.382 223.881 104.637 232.254 104.64 241.451 104.637 250.648 108.382 259.02 114.412 265.042 120.433 271.072 128.806 274.816 138.003 274.814 147.2 274.816 155.572 271.072 161.594 265.042 167.624 259.02 171.368 250.648 171.366 241.451 171.368 232.254 167.624 223.881 161.594 217.86 156.684 212.943 150.211 209.548 143.003 208.462L143.003 162.628 174.145 162.628 174.145 214.827 207.924 214.827C209.009 222.035 212.405 228.508 217.321 233.418 223.343 239.448 231.715 243.192 240.912 243.19 250.109 243.192 258.482 239.448 264.503 233.418 270.533 227.396 274.278 219.024 274.275 209.827 274.278 200.629 270.533 192.257 264.503 186.235 258.482 180.206 250.109 176.461 240.912 176.464ZM52.3731 226.347C48.1295 230.582 42.3204 233.187 35.853 233.19 29.3857 233.187 23.5765 230.582 19.3328 226.347 15.0971 222.103 12.4924 216.294 12.4899 209.827 12.4924 203.359 15.0971 197.55 19.3328 193.306 23.5765 189.071 29.3857 186.466 35.853 186.464 42.3204 186.466 48.1295 189.071 52.3731 193.306 56.6088 197.55 59.2136 203.359 59.216 209.827 59.2136 216.294 56.6088 222.103 52.3731 226.347ZM154.523 224.931C158.759 229.174 161.363 234.984 161.366 241.451 161.363 247.918 158.759 253.727 154.523 257.971 150.279 262.207 144.47 264.811 138.003 264.814 131.535 264.811 125.726 262.207 121.483 257.971 117.247 253.727 114.642 247.918 114.64 241.451 114.642 234.984 117.247 229.174 121.483 224.931 125.726 220.695 131.535 218.09 138.003 218.088 144.47 218.09 150.279 220.695 154.523 224.931ZM54.2829 152.628C42.7263 152.625 32.3096 147.958 24.7308 140.387 17.16 132.808 12.4924 122.391 12.4899 110.835 12.4924 99.2788 17.16 88.8623 24.7308 81.2835 32.3096 73.7127 42.7263 69.0452 54.2829 69.0427 61.2623 69.0441 67.8038 70.7706 73.5977 73.7978L81.2851 77.8169 80.9096 69.1487C80.9306 60.6422 84.3679 52.9881 89.9427 47.4052 95.5406 41.8152 103.221 38.3728 111.754 38.3703 120.485 38.3731 128.31 41.9923 133.944 47.8261L140.2 54.3144 142.393 45.5723C144.812 35.9264 150.381 27.5139 157.946 21.5179 165.517 15.5234 175.038 11.954 185.458 11.9513 197.749 11.9538 208.831 16.9192 216.891 24.9715 224.944 33.0319 229.909 44.1138 229.912 56.4053 229.91 64.8662 227.514 72.7177 223.398 79.4742L218.764 87.0767 231.5 87.0767C240.566 87.0792 248.728 90.7375 254.675 96.6765 260.615 102.624 264.273 110.786 264.275 119.852 264.273 128.919 260.615 137.081 254.675 143.028 248.728 148.967 240.566 152.625 231.5 152.628L54.2829 152.628ZM257.432 226.347C253.189 230.582 247.38 233.187 240.912 233.19 234.445 233.187 228.636 230.582 224.392 226.347 220.156 222.103 217.552 216.294 217.549 209.827 217.552 203.359 220.156 197.55 224.392 193.306 228.636 189.071 234.445 186.466 240.912 186.464 247.38 186.466 253.189 189.071 257.432 193.306 261.668 197.55 264.273 203.359 264.275 209.827 264.273 216.294 261.668 222.103 257.432 226.347Z" stroke="none" stroke-width="1" stroke-linecap="butt" stroke-linejoin="miter" stroke-miterlimit="4" fill="#00EDED" fill-opacity="1"/></svg>