<svg viewBox="0 0 276.77 276.77" xmlns="http://www.w3.org/2000/svg" xmlns:xlink="http://www.w3.org/1999/xlink" id="Layer_1" overflow="hidden"><defs/><path d="M237.89 54.5C257.25 77.11 268.94 106.48 268.94 138.59 268.94 210.03 211.02 267.95 139.58 267.95 121.21 267.95 103.74 264.12 87.92 257.22" stroke="#053057" stroke-width="10.613" stroke-linejoin="miter" stroke-miterlimit="10" stroke-opacity="1" fill="none"/><path d="M40.94 222.28C21.78 199.72 10.22 170.5 10.22 138.58 10.22 67.14 68.14 9.22 139.58 9.22 157.44 9.22 174.46 12.84 189.93 19.39" stroke="#053057" stroke-width="10.613" stroke-linejoin="miter" stroke-miterlimit="10" stroke-opacity="1" fill="none"/><circle cx="46.56" cy="229.42" r="12.57" stroke="#053057" stroke-width="10.613" stroke-linejoin="miter" stroke-miterlimit="10" stroke-opacity="1" fill="none"/><circle cx="232.42" cy="47.33" r="12.57" stroke="#053057" stroke-width="10.613" stroke-linejoin="miter" stroke-miterlimit="10" stroke-opacity="1" fill="none"/><circle cx="202.51" cy="204.28" r="12.57" stroke="#053057" stroke-width="10.613" stroke-linejoin="miter" stroke-miterlimit="10" stroke-opacity="1" fill="none"/><circle cx="78.15" cy="74.79" r="12.57" stroke="#053057" stroke-width="10.613" stroke-linejoin="miter" stroke-miterlimit="10" stroke-opacity="1" fill="none"/><path d="M208.55 197.1C221.95 181.33 230.03 160.9 230.03 138.58 230.03 88.63 189.53 48.13 139.58 48.13 127.09 48.13 115.19 50.66 104.37 55.24" stroke="#053057" stroke-width="10.613" stroke-linejoin="miter" stroke-miterlimit="10" stroke-opacity="1" fill="none"/><path d="M70.85 79.79C57.31 95.6 49.14 116.14 49.14 138.58 49.14 188.53 89.64 229.03 139.59 229.03 152.43 229.03 164.65 226.35 175.71 221.53" stroke="#053057" stroke-width="10.613" stroke-linejoin="miter" stroke-miterlimit="10" stroke-opacity="1" fill="none"/><g><path d="M138.39 122.35C129.54 122.35 122.36 129.53 122.36 138.38 122.36 147.23 129.54 154.41 138.39 154.41 147.24 154.41 154.42 147.23 154.42 138.38 154.42 129.53 147.24 122.35 138.39 122.35Z" stroke="#053057" stroke-width="10.613" stroke-linecap="square" stroke-linejoin="miter" stroke-miterlimit="10" stroke-opacity="1" fill="none"/><path d="M186.06 124.75 175.23 133.67C172.26 136.12 172.26 140.67 175.23 143.11L186.06 152.03 174.04 172.86 160.9 167.94C157.3 166.59 153.36 168.86 152.72 172.66L150.41 186.5 126.36 186.5 124.05 172.66C123.42 168.86 119.48 166.59 115.87 167.94L102.73 172.86C102.73 172.86 102.73 172.86 102.73 172.86L90.71 152.03 101.54 143.11C104.51 140.66 104.51 136.11 101.54 133.67L90.71 124.75 102.73 103.92 115.87 108.84C119.47 110.19 123.41 107.92 124.05 104.12L126.36 90.28 150.41 90.28 152.72 104.12C153.35 107.92 157.29 110.19 160.9 108.84L174.04 103.92 186.06 124.75Z" stroke="#053057" stroke-width="10.613" stroke-linecap="square" stroke-linejoin="miter" stroke-miterlimit="10" stroke-opacity="1" fill="none"/></g></svg>