<svg width="572" height="110" viewBox="0 0 572 110" xmlns="http://www.w3.org/2000/svg" xmlns:xlink="http://www.w3.org/1999/xlink" fill="none" overflow="hidden"><path d="M0 90.2812 0 25.1138 48.9904 25.1138C64.5239 25.1138 70.3146 32.0074 70.3146 41.3827 70.3146 48.552 66.2703 53.8831 59.2848 56.4567 67.4652 58.3869 74.0831 62.9826 74.0831 72.5417 74.0831 83.2957 67.1895 90.2812 53.1265 90.2812L0 90.2812ZM12.3165 81.0898 49.2661 81.0898C56.895 81.0898 61.307 78.1485 61.307 71.163 61.307 63.626 55.4244 61.4201 49.2661 61.4201L12.3165 61.4201 12.3165 81.0898ZM12.3165 53.5154 45.5896 53.5154C52.2074 53.5154 58.0899 51.2176 58.0899 43.7725 58.0899 37.1546 53.6781 34.3053 45.5896 34.3053L12.3165 34.3053 12.3165 53.5154Z" stroke="none" stroke-width="1" stroke-linecap="butt" stroke-linejoin="miter" stroke-miterlimit="4" fill="#00EDED" fill-opacity="1"/><path d="M79.532 90.2812 79.532 16.7496 91.6647 16.7496 91.6647 90.2812 79.532 90.2812Z" stroke="none" stroke-width="1" stroke-linecap="butt" stroke-linejoin="miter" stroke-miterlimit="4" fill="#00EDED" fill-opacity="1"/><path d="M136.308 92.1195C112.778 92.1195 98.4392 81.3655 98.4392 63.1664 98.4392 44.9674 113.054 34.1215 135.665 34.1215 158.459 34.1215 172.338 45.335 172.338 67.5783L111.583 67.5783C113.421 77.2293 122.245 82.3766 136.676 82.3766 148.533 82.3766 156.529 78.7 158.919 72.4498L171.511 72.4498C168.202 84.7663 156.161 92.1195 136.308 92.1195ZM111.767 58.1111 159.195 58.1111C156.989 48.1844 148.9 43.7725 135.756 43.7725 122.521 43.7725 113.973 48.3682 111.767 58.1111Z" stroke="none" stroke-width="1" stroke-linecap="butt" stroke-linejoin="miter" stroke-miterlimit="4" fill="#00EDED" fill-opacity="1"/><path d="M178.454 90.2812 178.454 35.9598 191.322 35.9598 191.322 47.7248C198.308 38.9929 209.062 34.1215 223.033 34.1215 240.497 34.1215 251.159 41.1989 251.159 62.6149L251.159 90.2812 238.291 90.2812 238.291 66.9349C238.291 50.9418 232.041 44.8755 217.242 44.8755 201.893 44.8755 191.322 53.2397 191.322 67.3945L191.322 90.2812 178.454 90.2812Z" stroke="none" stroke-width="1" stroke-linecap="butt" stroke-linejoin="miter" stroke-miterlimit="4" fill="#00EDED" fill-opacity="1"/><path d="M320.105 90.2812 320.105 78.8838C314.499 87.248 304.02 92.2114 290.969 92.2114 270.747 92.2114 257.696 80.814 257.696 63.2584 257.696 45.7027 270.747 34.2134 290.969 34.2134 304.02 34.2134 314.499 39.1768 320.105 47.6329L320.105 16.7496 332.146 16.7496 332.146 90.2812 320.105 90.2812ZM271.023 63.2584C271.023 74.2881 280.123 81.4574 294.829 81.4574 310.546 81.4574 320.105 74.2881 320.105 63.2584 320.105 52.1367 310.546 44.9674 294.829 44.9674 280.123 44.9674 271.023 52.1367 271.023 63.2584Z" stroke="none" stroke-width="1" stroke-linecap="butt" stroke-linejoin="miter" stroke-miterlimit="4" fill="#00EDED" fill-opacity="1"/><path d="M376.721 38.4244 377.454 70.7403 377.454 70.7952C377.454 73.5762 378.918 76.7863 382.791 80.2685 386.661 83.7493 392.535 87.1071 400.208 90.0267 415.519 95.8531 436.998 99.5602 460.963 99.5602 484.928 99.5602 506.407 95.8569 521.718 90.0325 529.391 87.1139 535.264 83.7567 539.135 80.2756 543.006 76.7935 544.472 73.5813 544.472 70.7952 544.472 68.0091 543.006 64.797 539.135 61.3149 538.756 60.974 538.358 60.6344 537.94 60.2962 534.003 62.7131 529.451 64.8785 524.445 66.7826 507.772 73.1251 485.067 76.9461 460.23 76.9461 443.554 76.9461 431.366 76.1549 419.478 73.4773 407.648 70.8129 396.353 66.3346 381.399 59.2516 380.589 58.91 379.132 58.0422 378.58 56.082 377.991 53.9873 378.979 52.4261 379.22 52.0651 379.567 51.5471 379.934 51.2188 380.073 51.0983 380.251 50.943 380.406 50.8307 380.499 50.7665 380.797 50.5595 381.07 50.4207 381.138 50.386L381.145 50.3827C381.354 50.2765 381.579 50.1761 381.754 50.0997 382.14 49.9319 382.672 49.714 383.317 49.4597 384.619 48.9458 386.508 48.2337 388.87 47.3913 393.597 45.7058 400.276 43.4782 408.031 41.2555 423.442 36.8381 443.498 32.322 460.963 32.322 485.8 32.322 508.505 36.1429 525.178 42.4854 529.827 44.2541 534.086 46.2483 537.824 48.46 538.021 48.2914 538.214 48.1224 538.402 47.9532 542.274 44.4711 543.739 41.2589 543.739 38.4728 543.739 35.6867 542.274 32.4746 538.402 28.9925 534.532 25.5113 528.658 22.1541 520.986 19.2355 505.675 13.4112 484.196 9.7078 460.23 9.7078 436.265 9.7078 414.786 13.4112 399.475 19.2355 391.803 22.1541 385.929 25.5113 382.058 28.9925 378.209 32.4544 376.738 35.6495 376.721 38.4244ZM545.848 54.2902C550.405 49.89 553.459 44.5616 553.459 38.4728 553.459 31.9736 549.979 26.3407 544.907 21.7783 539.833 17.2148 532.765 13.3279 524.445 10.163 507.772 3.8205 485.067-0.000427246 460.23-0.000427246 435.394-0.000427246 412.688 3.8205 396.015 10.163 387.696 13.3279 380.628 17.2148 375.554 21.7783 370.482 26.3407 367.001 31.9736 367.001 38.4728L367.001 38.5277 367.734 70.8544C367.755 77.3257 371.231 82.9363 376.287 87.4833 381.36 92.0456 388.428 95.9329 396.747 99.0988 413.42 105.443 436.125 109.268 460.963 109.268 485.8 109.268 508.505 105.448 525.178 99.105 533.497 95.9401 540.565 92.0532 545.639 87.4897 550.711 82.9273 554.192 77.2944 554.192 70.7952 554.192 64.3857 550.807 58.8188 545.848 54.2902ZM528.461 54.4534C526.398 53.4509 524.148 52.4824 521.718 51.5579 506.407 45.7335 484.928 42.0302 460.963 42.0302 444.879 42.0302 425.871 46.242 410.712 50.5871 405.077 52.2022 400.029 53.8194 395.935 55.2126 405.589 59.4147 413.531 62.1858 421.616 64.0068 432.468 66.4509 443.82 67.2378 460.23 67.2378 484.196 67.2378 505.675 63.5345 520.986 57.7101 523.707 56.675 526.202 55.5848 528.461 54.4534Z" stroke="none" stroke-width="1" stroke-linecap="butt" stroke-linejoin="miter" stroke-miterlimit="4" fill="#00EDED" fill-rule="evenodd" fill-opacity="1" clip-rule="evenodd"/><path d="M552.196 12.7754 552.196 1.42904 547.943 1.42904 547.943-0.000427246 558.057-0.000427246 558.057 1.42904 553.804 1.42904 553.804 12.7754 552.196 12.7754Z" stroke="none" stroke-width="1" stroke-linecap="butt" stroke-linejoin="miter" stroke-miterlimit="4" fill="#00EDED" fill-opacity="1"/><path d="M558.983 12.7754 558.983-0.000427246 561.181-0.000427246 565.183 10.6133 565.219 10.6133 569.221-0.000427246 571.419-0.000427246 571.419 12.7754 569.811 12.7754 569.811 2.26885 569.775 2.26885 565.916 12.7754 564.486 12.7754 560.627 2.26885 560.591 2.26885 560.591 12.7754 558.983 12.7754Z" stroke="none" stroke-width="1" stroke-linecap="butt" stroke-linejoin="miter" stroke-miterlimit="4" fill="#00EDED" fill-opacity="1"/></svg>