<svg viewBox="0 0 276.77 276.77" xmlns="http://www.w3.org/2000/svg" xmlns:xlink="http://www.w3.org/1999/xlink" id="Layer_1" overflow="hidden"><defs/><g><circle cx="134.43" cy="130.54" r="61.83" stroke="#053057" stroke-width="9.5189" stroke-linecap="butt" stroke-linejoin="miter" stroke-miterlimit="10" stroke-opacity="1" fill="none"/><line x1="178.33" y1="174.07" x2="200.07" y2="195.82" stroke="#053057" stroke-width="9.5189" stroke-linecap="butt" stroke-linejoin="miter" stroke-miterlimit="10" stroke-opacity="1" fill="none"/><rect x="191.55" y="210.84" width="68.96" height="23.51" stroke="#053057" stroke-width="9.5189" stroke-linecap="butt" stroke-linejoin="miter" stroke-miterlimit="10" stroke-opacity="1" fill="none" transform="matrix(0.707107 0.707107 -0.707107 0.707107 223.6 -94.63)"/></g><g><path d="M149.03 113.03C147.09 107.87 142.14 104.14 134.17 104.14 123.91 104.14 118.06 110.04 118.06 117.34 118.06 124.17 123.78 128.23 134.75 130.59 145.53 132.9 150.15 136.76 150.15 143.86 150.15 151.33 143.81 156.94 134.11 156.94 124.41 156.94 119.59 153.04 117.81 147.42" stroke="#053057" stroke-width="9.5189" stroke-linecap="butt" stroke-linejoin="miter" stroke-miterlimit="10" stroke-opacity="1" fill="none"/><line x1="134.1" y1="92.29" x2="134.1" y2="168.78" stroke="#053057" stroke-width="9.5189" stroke-linecap="butt" stroke-linejoin="miter" stroke-miterlimit="10" stroke-opacity="1" fill="none"/></g><path d="M39.16 173.62C33.18 160.49 29.85 145.9 29.85 130.53 29.85 73.03 76.46 26.42 133.96 26.42 169.15 26.42 200.26 43.88 219.11 70.6" stroke="#053057" stroke-width="9.5189" stroke-linecap="butt" stroke-linejoin="miter" stroke-miterlimit="10" stroke-opacity="1" fill="none"/><path d="M181.08 223.41C166.93 230.6 150.93 234.65 133.97 234.65 98.75 234.65 67.61 217.16 48.77 190.39" stroke="#053057" stroke-width="9.5189" stroke-linecap="butt" stroke-linejoin="miter" stroke-miterlimit="10" stroke-opacity="1" fill="none"/><path d="M229.09 88.13C234.87 101.08 238.09 115.43 238.09 130.53 238.09 148.2 233.69 164.85 225.92 179.43" stroke="#053057" stroke-width="9.5189" stroke-linecap="butt" stroke-linejoin="miter" stroke-miterlimit="10" stroke-opacity="1" fill="none"/><path d="M42.76 218.02 48.15 188.19 80.13 193.97" stroke="#053057" stroke-width="9.5189" stroke-linecap="butt" stroke-linejoin="miter" stroke-miterlimit="10" stroke-opacity="1" fill="none"/><path d="M224.39 43.28 219.11 73.13 187.11 67.47" stroke="#053057" stroke-width="9.5189" stroke-linecap="butt" stroke-linejoin="miter" stroke-miterlimit="10" stroke-opacity="1" fill="none"/></svg>